<?xml version="1.0"?>
<svg width="640" height="480" xmlns="http://www.w3.org/2000/svg" xmlns:svg="http://www.w3.org/2000/svg">
 <!-- Created with SVG-edit - https://github.com/SVG-Edit/svgedit-->
 <g class="layer">
  <title>Layer 1</title>
  <line fill="none" fill-opacity="null" id="svg_4" stroke="#000000" stroke-dasharray="null" stroke-linecap="null" stroke-linejoin="null" stroke-opacity="null" stroke-width="5" x1="315" x2="314" y1="171" y2="259"/>
  <line fill="none" fill-opacity="null" id="svg_5" stroke="#000000" stroke-dasharray="null" stroke-linecap="null" stroke-linejoin="null" stroke-opacity="null" stroke-width="5" x1="313" x2="261" y1="256" y2="328"/>
  <line fill="none" fill-opacity="null" id="svg_9" opacity="0.5" stroke="#000000" stroke-dasharray="null" stroke-linecap="null" stroke-linejoin="null" stroke-opacity="null" stroke-width="5" x1="313" x2="247" y1="187" y2="232"/>
  <line fill="none" fill-opacity="null" id="svg_6" stroke="#000000" stroke-dasharray="null" stroke-linecap="null" stroke-linejoin="null" stroke-opacity="null" stroke-width="5" x1="315" x2="371" y1="252" y2="325"/>
  <line fill="none" fill-opacity="null" id="svg_7" stroke="#000000" stroke-dasharray="null" stroke-linecap="null" stroke-linejoin="null" stroke-opacity="null" stroke-width="5" x1="316" x2="401" y1="187" y2="243"/>
  <path d="m308.62,87.38c41.63,-6.72 44.38,84.62 44.38,84.62c0,0 -72,-4.7 -72,-3.13c0,1.57 -14.01,-74.77 27.62,-81.49z" fill="none" fill-opacity="null" id="svg_16" stroke="#000000" stroke-dasharray="null" stroke-linecap="null" stroke-linejoin="null" stroke-opacity="null" stroke-width="5"/>
  <ellipse cx="328" cy="126" fill="none" fill-opacity="null" id="svg_18" rx="6" ry="3" stroke="#000000" stroke-dasharray="null" stroke-linecap="null" stroke-linejoin="null" stroke-opacity="null" stroke-width="5"/>
  <ellipse cx="301" cy="126" fill="none" fill-opacity="null" id="svg_19" rx="9" ry="2" stroke="#000000" stroke-dasharray="null" stroke-linecap="null" stroke-linejoin="null" stroke-opacity="null" stroke-width="5"/>
  <ellipse cx="319" cy="143" fill="none" fill-opacity="null" id="svg_21" rx="5" ry="9" stroke="#000000" stroke-dasharray="null" stroke-linecap="null" stroke-linejoin="null" stroke-opacity="null" stroke-width="5" transform="rotate(-11.9761, 319, 143)"/>
  <path d="m317,138c2.79,0.01 3.59,-0.05 4.36,0.44c0.84,0.53 1.25,1.2 2.12,1.76c0.67,0.43 1.44,0.99 2.21,1.44c0.76,0.45 1.6,0.72 2.4,1.24c0.73,0.46 0.89,1.14 0.9,2.1c0.01,1.02 0.02,1.82 0,2.72c-0.02,0.86 -0.7,1.3 -1.6,1.3c-0.9,0 -1.8,0 -2.7,0c-0.9,0 -1.8,0 -2.7,0l-0.8,0" fill="none" fill-opacity="null" id="svg_25" stroke="#000000" stroke-dasharray="null" stroke-linecap="null" stroke-linejoin="null" stroke-opacity="null" stroke-width="5"/>
 </g>
</svg>